<?xml version="1.0" encoding="UTF-8"?>
<svg id="Layer_2" data-name="Layer 2" xmlns="http://www.w3.org/2000/svg" viewBox="0 0 577.45 284.46">
  <defs>
    <style>
      .cls-1 {
        fill: #2b2e31;
      }

      .cls-1, .cls-2, .cls-3 {
        stroke-width: 0px;
      }

      .cls-2 {
        fill: #c3a56e;
      }

      .cls-3 {
        fill: #0f0f0f;
      }
    </style>
  </defs>
  <g id="Layer_1-2" data-name="Layer 1">
    <g>
      <g>
        <path class="cls-2" d="M250.52,199.85c4.32-7.48,8.5-14.73,12.68-21.97,4.16-7.21,8.32-14.43,12.48-21.65,4.18-7.25,8.36-14.51,12.54-21.75,4.16-7.2,8.31-14.4,12.46-21.59-.38-.26-.67-.18-.94-.18-10.81,0-21.63,0-32.44,0-.16,0-.33.01-.49,0-.38-.03-.59.16-.77.48-.52.92-1.06,1.83-1.59,2.74-5.2,9.01-10.4,18.02-15.59,27.03-4.38,7.6-8.76,15.21-13.15,22.81-.1.18-.21.35-.31.53-.52.92-.57.83-1.02.05-2.27-3.95-4.55-7.88-6.83-11.82-2.27-3.94-4.54-7.89-6.81-11.83-.08-.14-.16-.28-.25-.42-.27-.38-.25-.73-.02-1.13.74-1.26,1.46-2.53,2.19-3.8,2.66-4.61,5.32-9.22,7.98-13.83,2.92-5.07,5.85-10.13,8.77-15.2,3.19-5.53,6.37-11.05,9.56-16.58.79-1.37,1.59-2.74,2.38-4.11.18-.31.41-.48.78-.46.32.02.65,0,.98,0,46.92,0,93.83,0,140.75,0,1.76,0,1.29-.22,2.15,1.25,2.18,3.72,4.29,7.47,6.47,11.19.31.53.3.95,0,1.46-2.17,3.72-4.32,7.45-6.47,11.18-2.38,4.12-4.75,8.23-7.13,12.35-2.86,4.96-5.73,9.92-8.59,14.89-2.92,5.07-5.84,10.14-8.77,15.21-2.6,4.51-5.2,9.01-7.79,13.52-2.64,4.58-5.28,9.15-7.91,13.73-2.58,4.47-5.16,8.94-7.74,13.41-.75,1.3-1.51,2.6-2.24,3.91-.25.44-.55.67-1.07.62-.24-.03-.49,0-.73,0-8.78,0-17.56,0-26.34,0-.33,0-.65,0-.98,0-.5-.02-.6-.16-.35-.58.87-1.52,1.74-3.03,2.61-4.54,3-5.21,6.01-10.42,9.02-15.63,3.15-5.45,6.3-10.91,9.45-16.36,2.92-5.07,5.84-10.14,8.76-15.21,2.54-4.4,5.07-8.8,7.61-13.2,2.94-5.1,5.89-10.2,8.84-15.3,1.12-1.94,2.23-3.87,3.34-5.81.17-.3.08-.48-.23-.49-.32-.01-.65-.01-.98-.01-11.1,0-22.2,0-33.3,0-1.44,0-1.16-.14-1.87,1.09-3.5,6.05-7,12.1-10.49,18.15-4.34,7.53-8.68,15.07-13.02,22.6-4.53,7.85-9.06,15.69-13.59,23.54-4,6.93-8,13.87-11.99,20.8-.08.14-.17.28-.24.42-.18.37-.45.56-.87.53-.2-.01-.41,0-.61,0-9.03,0-18.05,0-27.08,0-.32,0-.64,0-1.21,0Z"/>
        <path class="cls-2" d="M279.08,43.52h50.36c.2,0,.41-.01.61,0,.35.03.85-.16,1.03.13.24.38-.21.72-.4,1.06-3.5,6.09-7.01,12.18-10.52,18.27-1.03,1.79-2.09,3.58-3.1,5.39-.3.53-.67.76-1.27.7-.32-.03-.65,0-.97,0-23.98,0-47.96,0-71.94,0-1.93,0-1.42-.22-2.34,1.35-2.84,4.88-5.66,9.77-8.48,14.66-2.96,5.14-5.92,10.28-8.89,15.41-2.92,5.07-5.84,10.14-8.76,15.21-1.32,2.29-2.64,4.58-3.95,6.86-.1.18-.21.35-.32.52-.27.42-.45.43-.69.03-.76-1.3-1.5-2.6-2.25-3.91-2.88-5-5.77-9.99-8.65-14.99-1.02-1.76-2.01-3.53-3.06-5.27-.35-.57-.3-1.01.03-1.56,1.28-2.17,2.53-4.36,3.79-6.54,2.76-4.79,5.52-9.57,8.28-14.36,4.49-7.78,8.98-15.55,13.46-23.33,1.64-2.85,3.27-5.71,4.93-8.55.69-1.18.45-1.08,1.9-1.08,17.07,0,34.14,0,51.21,0Z"/>
        <path class="cls-2" d="M237.25,25.36c0-.47.28-.79.47-1.13,1.33-2.33,2.68-4.65,4.01-6.97,2.62-4.54,5.23-9.08,7.85-13.62.61-1.06,1.23-2.11,1.83-3.17.18-.32.4-.49.77-.47.28.01.57,0,.85,0,34.55,0,69.1,0,103.65,0,1.51,0,1.28-.16,1.98,1.11,1.85,3.34,3.71,6.68,5.56,10.02,2.48,4.48,4.95,8.96,7.42,13.45.11.21.3.39.26.67-.1.23-.33.16-.52.17-.32.02-.65,0-.98,0-43.9,0-87.8,0-131.7,0-.48,0-.96.06-1.47-.07Z"/>
        <path class="cls-1" d="M148.58,69.08c-.12-.49.2-.76.37-1.06,1.83-3.21,3.69-6.4,5.53-9.6,2.66-4.61,5.31-9.21,7.97-13.82.74-1.29.46-1.08,1.88-1.08,13.7,0,27.39,0,41.09,0,1.45,0,1.51-.08.71,1.31-4.47,7.73-8.93,15.47-13.39,23.2-.71,1.23-.38,1.05-1.76,1.05-13.78,0-27.55,0-41.33,0h-1.07Z"/>
      </g>
      <g>
        <path class="cls-3" d="M30.86,245.95v-7.38c0-.19-.15-.4-.4-.4H.4c-.25,0-.4.21-.4.4v7.38c0,.19.15.4.4.4h10.56v37.02c0,.19.21.4.4.4h8.12c.19,0,.4-.22.4-.4v-37.02h10.56c.25,0,.4-.21.4-.4Z"/>
        <path class="cls-3" d="M69.77,283.78h8.05c.19,0,.4-.22.4-.4v-44.8c0-.19-.21-.4-.4-.4h-8.05c-.25,0-.4.21-.4.4v17.94h-21.12v-17.94c0-.19-.15-.4-.4-.4h-8.05c-.19,0-.4.22-.4.4v44.8c0,.19.21.4.4.4h8.05c.25,0,.4-.21.4-.4v-18.68h21.12v18.68c0,.19.15.4.4.4Z"/>
        <path class="cls-3" d="M92.03,283.78h28.02c.25,0,.4-.21.4-.4v-7.38c0-.19-.15-.4-.4-.4h-19.63v-10.9h16.31c.19,0,.4-.15.4-.4v-7.38c0-.19-.21-.4-.4-.4h-16.31v-10.16h19.63c.25,0,.4-.21.4-.4v-7.38c0-.19-.15-.4-.4-.4h-28.02c-.25,0-.4.21-.4.4v44.8c0,.19.15.4.4.4Z"/>
        <path class="cls-3" d="M174.66,246.35c.25,0,.4-.21.4-.4v-7.38c0-.19-.15-.4-.4-.4h-28.02c-.25,0-.4.21-.4.4v44.8c0,.19.15.4.4.4h7.99c.19,0,.4-.22.4-.4v-17.33h16.31c.19,0,.4-.22.4-.4v-7.38c0-.19-.21-.4-.4-.4h-16.31v-11.51h19.63Z"/>
        <rect class="cls-3" x="184.34" y="238.17" width="8.93" height="45.61" rx=".4" ry=".4"/>
        <path class="cls-3" d="M207.08,283.78h25.45c.25,0,.4-.21.4-.4v-7.38c0-.19-.15-.4-.4-.4h-16.99v-37.02c0-.19-.21-.4-.4-.4h-8.05c-.25,0-.4.21-.4.4v44.8c0,.19.15.4.4.4Z"/>
        <path class="cls-3" d="M278.15,261.78l.24.75,3.05,20.91c.02.12.25.33.41.33h7.99c.15,0,.28-.05.35-.13.08-.1.08-.24.07-.34l-7.65-45.47c-.02-.19-.24-.35-.35-.35h-1.08c-.1.01-.32.13-.37.2l-15.96,29.71h-1.05l-.39-.47-15.7-29.24c-.06-.09-.28-.2-.39-.21h-1.07c-.11,0-.32.15-.34.3v.05s-7.65,45.48-7.65,45.48c-.01.09-.02.23.07.33.07.08.2.13.35.13h7.99c.23,0,.4-.2.41-.31l3.09-21.69h1.3l.38.47,11.44,21.93c.06.12.28.26.38.27h1.21c.08-.02.31-.17.36-.26l11.62-22.41h1.3Z"/>
        <path class="cls-3" d="M352.53,261.78l.24.75,3.05,20.91c.02.12.25.33.41.33h7.99c.15,0,.28-.05.35-.13.08-.1.08-.24.07-.34l-7.65-45.47c-.02-.19-.24-.35-.35-.35h-1.08c-.1.01-.32.13-.37.2l-15.96,29.71h-1.05l-.39-.47-15.7-29.24c-.06-.09-.28-.2-.39-.21h-1.07c-.11,0-.32.15-.34.3v.05s-7.65,45.48-7.65,45.48c-.01.09-.02.23.07.33.07.08.2.13.35.13h7.99c.23,0,.4-.2.41-.31l3.09-21.69h1.3l.38.47,11.44,21.93c.06.12.28.26.38.27h1.21c.08-.02.31-.17.36-.26l11.62-22.41h1.3Z"/>
        <path class="cls-3" d="M400.51,276.74l2.67,5.86c.51,1.08.8,1.18,1.57,1.18h7.51c.17,0,.31-.05.37-.14.06-.09.05-.22-.02-.37l-21.18-45.54c-.06-.12-.25-.23-.35-.23h-.68c-.1,0-.29.12-.36.26l-21.17,45.52c-.07.14-.07.27-.02.36.06.09.19.14.37.14h7.44c.78,0,1.32-.36,1.62-1.08l2.68-5.96h19.55ZM390.1,256.37h1.13l.3.51,5.72,12.42h-13.04l5.88-12.93Z"/>
        <path class="cls-3" d="M446.47,283.6s.32.11.51.11h9.34c.38,0,.56-.27.62-.39.05-.09.18-.41-.04-.71l-17.67-23,16.27-20.37c.17-.23.13-.53.04-.72-.07-.13-.23-.35-.57-.35h-8.53c-.13.01-.48.2-.6.34l-16.6,20.71v-20.31c0-.39-.35-.74-.74-.74h-7.92c-.49,0-.74.37-.74.74v44.13c0,.37.25.74.74.74h7.92c.39,0,.74-.35.74-.74v-22.86l17.23,23.42h0Z"/>
        <path class="cls-3" d="M465.79,283.78h28.02c.25,0,.4-.21.4-.4v-7.38c0-.19-.15-.4-.4-.4h-19.63v-10.9h16.31c.19,0,.4-.15.4-.4v-7.38c0-.19-.21-.4-.4-.4h-16.31v-10.16h19.63c.25,0,.4-.21.4-.4v-7.38c0-.19-.15-.4-.4-.4h-28.02c-.25,0-.4.21-.4.4v44.8c0,.19.15.4.4.4Z"/>
        <path class="cls-3" d="M529.24,283.66s.12.12.29.12h9c.2,0,.33-.06.4-.17.08-.13.07-.32-.02-.49l-9.74-18.06.92-.37c5.84-2.35,9.46-7.25,9.46-12.79,0-7.57-6.22-13.74-13.87-13.74h-20.24c-.25,0-.4.21-.4.4v44.8c0,.19.15.4.4.4h8.05c.19,0,.4-.22.4-.4v-18.14h6.1l9.24,18.42ZM513.9,246.08h10.9c3.32,0,6.03,2.7,6.03,6.03s-2.82,6.3-6.03,6.3h-10.9v-12.32Z"/>
        <path class="cls-3" d="M564.33,256.72c-5.64-2.28-7.93-4.42-7.93-7.39,0-2.39,2.31-4.33,5.15-4.33,3.84,0,8.1,2.84,9.7,3.91.2.13.34.23.41.27.25.1.87-.17,1.13-.58l3.46-5.22c.07-.12.15-.76-.11-.92-2.58-1.88-7.71-4.96-14.04-4.96-10.13,0-14.75,6.52-14.75,12.59,0,7.58,6.84,11.87,12.57,14.14,5.14,2.04,7.53,4.47,7.53,7.66,0,2.86-2.34,4.94-5.55,4.94-1.94,0-5.22-.64-9.85-3.71l-.19-.12c-.12-.07-.32-.14-.55-.14-.07,0-.14,0-.22.02-.22.05-.3.15-.35.22l-3.17,5.59c-.18.31-.19.42-.19.43.03.04.28.29.39.4.83.83,5.42,4.95,14.6,4.95s15.09-6.67,15.09-13.13c0-8.42-7.48-12.37-13.11-14.61Z"/>
      </g>
    </g>
  </g>
</svg>